<?xml version="1.0" encoding="UTF-8"?>
<svg width="512" height="512" version="1.1" viewBox="0 0 512 512" xmlns="http://www.w3.org/2000/svg">
 <g>
  <path d="m256 64c-53.019 0-96 42.981-96 96v32h-16c-26.51 0-48 21.49-48 48v160c0 26.51 21.49 48 48 48h128c26.51 0 48-21.49 48-48v-160c0-26.51-21.49-48-48-48h-16v-32c0-53.019-42.981-96-96-96zm0 32c35.346 0 64 28.654 64 64v32h-128v-32c0-35.346 28.654-64 64-64z" fill="#1E40AF"/>
  <path d="m256 64c-53.019 0-96 42.981-96 96v32h-16c-26.51 0-48 21.49-48 48v160c0 26.51 21.49 48 48 48h128c26.51 0 48-21.49 48-48v-160c0-26.51-21.49-48-48-48h-16v-32c0-53.019-42.981-96-96-96zm0 32c35.346 0 64 28.654 64 64v32h-128v-32c0-35.346 28.654-64 64-64z" fill="#6B7280"/>
  <path d="M 448,256 A 192,192 0 0 1 256,448 192,192 0 0 1 64,256 192,192 0 0 1 256,64 192,192 0 0 1 448,256 Z" fill="none" stroke="#1E40AF" stroke-width="32"/>
  <path d="m256 160c-26.51 0-48 21.49-48 48s21.49 48 48 48 48-21.49 48-48-21.49-48-48-48z" fill="#1E40AF"/>
 </g>
</svg>
