<?xml version="1.0" encoding="UTF-8"?>
<svg width="200" height="50" viewBox="0 0 200 50" fill="none" xmlns="http://www.w3.org/2000/svg">
  <g>
    <path d="M40 25C40 31.0751 35.0751 36 29 36C22.9249 36 18 31.0751 18 25C18 18.9249 22.9249 14 29 14C35.0751 14 40 18.9249 40 25Z" fill="#0066CC"/>
    <path d="M32 25C32 27.7614 29.7614 30 27 30C24.2386 30 22 27.7614 22 25C22 22.2386 24.2386 20 27 20C29.7614 20 32 22.2386 32 25Z" fill="#CCCCCC"/>
    <path d="M60 25L50 35L40 25L50 15L60 25Z" fill="#0066CC"/>
    <text x="70" y="30" font-family="Arial" font-size="24" font-weight="bold" fill="#0066CC">ZERO</text>
    <text x="70" y="45" font-family="Arial" font-size="18" fill="#666666">BARRIER</text>
  </g>
</svg>
